<svg id="Layer_1" data-name="Layer 1" xmlns="http://www.w3.org/2000/svg" viewBox="0 0 512 512"><defs><style>.cls-1{fill:#f5ceb7;}.cls-2{fill:#f4607f;}.cls-3{fill:#908fe2;}.cls-4{fill:#141f38;}</style></defs><title>stethoscope-filled</title><path class="cls-1" d="M422.41,332.8A76.8,76.8,0,1,1,499.2,256,76.88,76.88,0,0,1,422.41,332.8Z"/><path class="cls-2" d="M422.41,281.6A25.6,25.6,0,1,1,448,256,25.62,25.62,0,0,1,422.41,281.6Z"/><path class="cls-3" d="M211.22,76.8a32,32,0,1,1,32-32A32,32,0,0,1,211.22,76.8Z"/><path class="cls-3" d="M70.43,76.8a32,32,0,1,1,32-32A32,32,0,0,1,70.43,76.8Z"/><path class="cls-1" d="M140.82,358.4a25.62,25.62,0,0,1-25.6-25.6V320a25.6,25.6,0,1,1,51.2,0v12.8A25.62,25.62,0,0,1,140.82,358.4Z"/><path class="cls-4" d="M512,256a89.59,89.59,0,1,0-102.39,88.69V358.4a128.14,128.14,0,0,1-128,128c-67.06,0-122.22-51.83-127.56-117.54a38.41,38.41,0,0,0,25.17-36.06v-7.28c30-12.37,45.84-37.64,50.63-53l45.61-148.24a77.27,77.27,0,0,0-10-66.38A75.4,75.4,0,0,0,256,46.51c0-.57,0-1.13,0-1.71a44.83,44.83,0,1,0-10.72,29.07A51.77,51.77,0,0,1,251,116.79L205.4,265a65.26,65.26,0,0,1-31.78,35,38.4,38.4,0,0,0-66.2,1,64.87,64.87,0,0,1-33.9-36L27.92,116.79A51.81,51.81,0,0,1,34.62,72.3l.22-.3a44.8,44.8,0,1,0-9.19-28,75.07,75.07,0,0,0-12.22,14,77.27,77.27,0,0,0-10,66.38l45.62,148.3c4.92,15.73,21.55,42,53.35,54v6.22a38.41,38.41,0,0,0,26,36.34C133.93,448.84,200.53,512,281.61,512c84.69,0,153.59-68.91,153.59-153.6V344.69A89.61,89.61,0,0,0,512,256ZM211.22,64a19.2,19.2,0,1,1,19.2-19.2A19.22,19.22,0,0,1,211.22,64ZM70.43,25.6a19.2,19.2,0,1,1-19.2,19.2A19.22,19.22,0,0,1,70.43,25.6ZM128,320a12.8,12.8,0,1,1,25.6,0v12.8a12.8,12.8,0,1,1-25.6,0Zm294.38,0a64,64,0,1,1,64-64A64.07,64.07,0,0,1,422.41,320Zm0-102.4A38.4,38.4,0,1,0,460.8,256,38.4,38.4,0,0,0,422.41,217.6Zm0,51.2A12.8,12.8,0,1,1,435.2,256,12.81,12.81,0,0,1,422.41,268.8Z"/></svg>